<svg width="360" height="114" viewBox="0 0 360 114" fill="none" xmlns="http://www.w3.org/2000/svg">
<g clip-path="url(#clip0)">
<rect y="10" width="84" height="85" rx="42" fill="#5965E0"/>
<path fill-rule="evenodd" clip-rule="evenodd" d="M325.196 42.9863L322.89 54.1562L317.167 81.7926H303.583L309.306 54.1562H302.524L304.834 42.9821L325.196 42.9863ZM315.107 35.7404C312.752 33.0458 313.472 28.4229 316.705 25.4209C319.939 22.419 324.472 22.1748 326.839 24.8736C329.206 27.5724 328.474 32.1953 325.241 35.1973C322.007 38.1992 317.465 38.4434 315.107 35.7404ZM280.764 53.4236C280.267 55.6299 279.067 57.6011 277.355 59.0233L270.434 64.9177C268.775 66.3549 266.687 67.1632 264.519 67.2081H254.937L254.721 68.248C254.312 70.2353 254.549 70.6016 256.478 70.6016H277.212L274.907 81.7799H251.458C243.479 81.7799 239.42 76.4665 241.116 68.248L243.54 56.4971C245.237 48.2786 251.491 42.9694 259.483 42.9694H269.801C277.76 42.9863 281.876 48.0176 280.764 53.4236ZM266.53 56.5139C266.939 54.5267 266.702 54.1604 264.773 54.1604H259.867C257.946 54.1562 257.537 54.5309 257.128 56.5139L256.311 60.56H264.405C264.768 60.5446 265.116 60.4075 265.396 60.1696C265.677 59.9318 265.874 59.6061 265.958 59.2422L266.53 56.5139ZM195.961 56.514L193.537 68.2691C191.841 76.4876 185.586 81.7968 177.594 81.7968H167.301C159.321 81.7968 155.262 76.4834 156.959 68.2649L159.383 56.514C161.075 48.2955 167.33 42.9863 175.326 42.9863H185.635C193.598 42.9863 197.662 48.2955 195.961 56.514ZM182.361 56.514C182.77 54.5267 182.532 54.1604 180.607 54.1604H175.702C173.772 54.1604 173.384 54.5309 172.975 56.514L170.547 68.2649C170.138 70.2522 170.379 70.6185 172.305 70.6185H177.21C179.135 70.6185 179.528 70.248 179.937 68.2649L182.361 56.514ZM288.274 81.801C292.497 81.801 295.289 78.8496 296.041 75.2077C296.781 71.5616 295.223 68.6186 291.001 68.6186C286.778 68.6186 283.986 71.5616 283.234 75.2077C282.481 78.8538 284.051 81.801 288.274 81.801ZM342.937 68.2649L347.001 48.5734H357.69L360.008 37.395H349.314L351.203 28.2419H337.602L335.714 37.395H330.563L328.257 48.5734H333.396L329.333 68.2649C327.636 76.4834 331.7 81.7968 339.679 81.7968H350.835L353.141 70.6185H344.691C342.765 70.6185 342.528 70.2522 342.937 68.2649Z" fill="#5965E0"/>
<path d="M246.279 42.9863L221.085 81.7967H207.187L197.997 42.9863H212.881L216.883 68.4712L231.395 43.0073L246.279 42.9863Z" fill="#5965E0"/>
<path d="M99.8921 28.1818L90.9575 82H101.994L107.881 46.8395H108.328L116.421 81.7372H123.963L143.619 46.9709H144.092L138.259 82H149.296L158.23 28.1818H144.198L123.411 64.3409H122.781L113.925 28.1818H99.8921Z" fill="#5965E0"/>
<path d="M41.7338 22H58.9765L44.6321 92.3077H27.3894L41.7338 22Z" fill="#F9F9F9"/>
<path d="M67.0337 22H84.2764L73.1001 77.0875H55.8533L67.0337 22Z" fill="#F9F9F9"/>
<path d="M16.1804 22H33.4231L22.2468 77.0875H5L16.1804 22Z" fill="#F9F9F9"/>
</g>
<defs>
<clipPath id="clip0">
<rect width="360" height="114" fill="white"/>
</clipPath>
</defs>
</svg>
